<?xml version="1.0" encoding="UTF-8" standalone="no"?>
<!-- Created with Inkscape (http://www.inkscape.org/) -->

<svg
   version="1.1"
   id="svg1"
   width="1488"
   height="714"
   viewBox="0 0 1488 714"
   sodipodi:docname="logoCompleto.svg"
   inkscape:version="1.4.2 (f4327f4, 2025-05-13)"
   xmlns:inkscape="http://www.inkscape.org/namespaces/inkscape"
   xmlns:sodipodi="http://sodipodi.sourceforge.net/DTD/sodipodi-0.dtd"
   xmlns="http://www.w3.org/2000/svg"
   xmlns:svg="http://www.w3.org/2000/svg">
  <defs
     id="defs1">
    <inkscape:path-effect
       effect="bspline"
       id="path-effect8"
       is_visible="true"
       lpeversion="1.3"
       weight="33.333333"
       steps="2"
       helper_size="0"
       apply_no_weight="true"
       apply_with_weight="true"
       only_selected="false"
       uniform="false" />
    <inkscape:path-effect
       effect="bspline"
       id="path-effect2"
       is_visible="true"
       lpeversion="1.3"
       weight="33.333333"
       steps="2"
       helper_size="0"
       apply_no_weight="true"
       apply_with_weight="true"
       only_selected="false"
       uniform="false" />
  </defs>
  <sodipodi:namedview
     id="namedview1"
     pagecolor="#ffffff"
     bordercolor="#000000"
     borderopacity="0"
     inkscape:showpageshadow="2"
     inkscape:pageopacity="0.0"
     inkscape:pagecheckerboard="true"
     inkscape:deskcolor="#d1d1d1"
     showgrid="false"
     inkscape:zoom="0.70710678"
     inkscape:cx="910.75353"
     inkscape:cy="88.388347"
     inkscape:window-width="2400"
     inkscape:window-height="1261"
     inkscape:window-x="951"
     inkscape:window-y="349"
     inkscape:window-maximized="1"
     inkscape:current-layer="g1" />
  <g
     inkscape:groupmode="layer"
     inkscape:label="Image"
     id="g1">
    <g
       id="g19"
       transform="matrix(0.98270897,0,0,0.97110599,1356.3851,860.41517)">
      <path
         id="path10"
         style="fill:#5175fd;fill-opacity:1"
         d="m -416.05096,-878.13846 c -24.55743,1.28873 -56.48906,11.59833 -56.99023,11.66992 53.89002,-10.26621 96.44999,2.97037 145.55469,27.56445 11.9673,5.99382 87.05899,56.27472 128.87109,53.69727 64.9199,4.47675 168.854626,-65.13456 229.107426,-13.31641 17.4695,20.76284 28.92533,36.94386 27.20703,71.45313 7.321333,88.86288 -23.215157,154.36464 -64.1205619,229.13207 l -31.5317781,55.10426 c 0,0 -38.3744,67.87288 -46.25,79.75781 -7.8755,11.88494 -39.666026,58.56445 -39.666026,58.56445 0,0 119.852966,-120.7108 165.101566,-205.48047 l 45.24805,-84.76953 c 29.265194,-69.37085 77.821974,-173.6465 9.609379,-233.13867 -9.400099,-7.73393 -16.262699,-12.64902 -27.841799,-17.49805 -37.5318,-15.71747 -81.27941,-15.68895 -99.75781,-9.39843 -13.9669,4.75468 -43.38394,11.17296 -67.58594,21.85351 -120.209516,53.04953 -162.928386,6.87117 -191.304696,-6.96289 -46.4974,-23.22074 -73.80504,-39.31905 -125.65039,-38.23242 z m -19.89062,20.12695 c -5.93606,-0.0809 -12.0255,0.12144 -18.27149,0.63672 -54.34684,4.48348 -81.9909,47.00532 -91.62109,98.35937 -10.72266,57.17976 0.20185,125.2414 7.14453,162.50586 6.86117,36.82698 18.79643,92.70469 40.53516,158.25196 28.49386,85.91557 70.4375,175.47461 70.4375,175.47461 l 21.58007,37.45312 c -49.63482,-48.52912 -89.41211,-59.26172 -89.41211,-59.26172 -5.7387,-0.64377 -31.96224,-16.70882 -88.04101,-22.66015 -45.03527,-4.77934 -109.54121,-2.60473 -196.52735,16.05859 -223.02403,53.76812 -269.74113,59.4256 -312.78903,59.59375 -14.5551,0.0569 -31.1288,-0.25508 -47.336,-2.07031 -13.2843,-1.48787 -26.3902,-4.31702 -37.3769,-5.97461 -9.9304,-1.49823 -25.2555,-6.92953 -37.4551,-11.47656 -51.2397,-19.09799 -110.8277,-64.39993 -125.2051,-140.69336 -4.0268,-21.36793 -6.3719,-44.7925 -1.7226,-71.20899 23.6444,-134.34317 92.1593,-154.24129 100.5371,-156.1875 0.7319,65.14224 1.2726,127.31216 -0.5606,188.09571 -0.2026,6.71573 -1.6486,15.36072 -4.2187,21.1875 -5.9313,13.44762 -10.8611,15.41134 -19.8731,21.49023 l 0.01,4.3125 105.4941,-0.0605 -0.07,-3.29101 c 0,0 -21.4616,-11.4109 -23.7363,-34.59571 -1.1735,-11.96066 -1.4336,-24.1914 -1.4336,-24.1914 l -0.3027,-192.96289 0.2148,-0.0312 v -3.49024 c 27.905,-4.23763 61.5091,-5.7803 91.2793,-1.71875 23.0097,3.13923 43.2695,11.15775 58.2402,19.19336 21.5045,11.54263 40.33224,29.28497 60.62505,46.5293 -1.4e-4,-0.0162 -0.002,-0.0327 -0.002,-0.0488 l 0.004,0.002 0.002,0.0508 c -0.002,-10e-4 -0.002,-0.002 -0.004,-0.004 0.44266,50.78943 0.47506,99.92438 -0.98633,148.18945 -0.20446,6.75274 -1.66347,15.44579 -4.25781,21.30469 -5.98748,13.52173 -10.96334,15.49697 -20.06051,21.60937 l 0.01,4.33399 79.26754,-0.043 c -6e-5,0.0382 0,0.0605 0,0.0605 l 15.91601,-0.0449 c 12.85086,6.91084 35.23162,18.19203 49.29102,21.01953 5.03463,1.01252 6.14816,1.57053 10.16601,2.3125 6.32555,1.16815 14.3376,1.77998 21.78321,2.39648 16.99421,1.40713 34.38867,0.25586 34.38867,0.25586 0,0 20.33186,-3.1495 27.20508,-4.72461 6.87322,-1.57511 39.66585,-14.17566 56.5625,-28.78125 16.89666,-14.60558 49.15873,-50.94264 49.96875,-121.41406 0.81001,-70.47142 -91.93658,-134.05678 -106.92188,-146.20703 -14.9853,-12.15024 -95.60243,-69.57236 -90.72265,-109.35157 0.21519,-1.75417 -0.46147,-3.77878 -0.35547,-5.46484 0.31445,-5.00182 1.20308,-9.39725 2.49804,-13.76953 3.04886,-10.29407 7.30836,-16.61053 13.81446,-21.94727 7.16126,-5.87414 17.10887,-10.34683 32.64453,-12.68554 37.66576,-5.67011 60.75195,22.27539 60.75195,22.27539 0,0 5.8722,7.59436 9.41602,12.25195 1.1295,1.48448 4.75342,5.89782 8.55273,13.28516 3.67471,6.48045 6.15844,10.19078 8.76172,20.9375 l 6.07422,0.10156 3.08203,-66.72852 c -0.85915,-0.1432 -2.86328,-0.57226 -2.86328,-0.57226 0,0 -0.39356,5.55309 -19.25391,4.04101 -18.29383,-1.46667 -9.3843,-2.8962 -42.74804,-9.33984 -33.36374,-6.44364 -52.12204,1.57612 -58.2793,3.86719 -6.15726,2.29107 -19.76027,11.59732 -24.19922,15.32031 -4.43895,3.723 -28.92467,33.36338 -19.61719,73.88672 9.30749,40.52334 64.29297,84.62695 64.29297,84.62695 l 56.41797,50.11719 c 0,0 41.01953,42.27506 48.27539,63.87695 0.55686,1.65786 4.33632,7.82359 4.41797,9.15039 1.14554,18.61496 26.06084,61.71683 -25.48828,129.58985 -4.81061,6.33397 -20.87685,14.33799 -27.09766,18.18359 -53.3781,32.99751 -143.30263,-20.57666 -160.36718,-40.52148 -0.72658,-0.90251 -1.51458,-1.98292 -2.26954,-3.2168 -0.11342,-0.22254 -0.20894,-0.43541 -0.28906,-0.64063 l 0.0117,0.17579 c -0.24213,-0.41302 -0.47939,-0.84117 -0.70898,-1.28516 -0.0552,-0.58221 -0.1091,-1.16542 -0.16016,-1.74609 v -0.002 c -0.97922,-11.13621 -1.20508,-21.72656 -1.20508,-21.72656 l -0.16797,-106.7793 c 5.87405,-10.60031 11.60238,-21.65118 21.38867,-29.22461 20.64277,-16.94145 44.01287,-29.72099 70.81446,-33.10156 l 1.82226,-0.13086 -0.14453,-1.64648 c -20.78257,-0.10431 -41.45272,1.24303 -61.66601,8.51953 -11.15471,4.207 -22.23068,8.70467 -32.27539,16.9707 l -0.29883,-188.93945 c 0,0 0.0593,-10.55779 7.64844,-24.38086 8.07027,-14.69951 18.29492,-17.22852 18.29492,-17.22852 l 0.14648,-4.93164 -107.34761,0.46875 c 0,1.04316 0.032,3.4868 0.037,4.53321 0.011,2.03256 7.35367,-0.98331 16.60738,14.14453 6.07771,9.93576 7.98471,25.30162 7.97461,27.54297 -0.29122,65.86243 0.73374,128.09582 1.32617,187.96484 0.10775,0.097 0.21646,0.19402 0.32422,0.29102 -0.11248,-0.0894 -0.22211,-0.17534 -0.32422,-0.25782 -1.1e-4,-0.0108 10e-5,-0.0224 0,-0.0332 -2.06003,-1.85444 -4.11965,-3.70806 -6.17969,-5.5625 -57.54937,-61.14395 -128.53607,-64.27604 -203.83597,-56.26367 v -0.008 l -0.1914,0.0195 c -0.016,0.002 -0.034,1.9e-4 -0.051,0.002 v 0.002 l -0.029,0.004 v -0.002 c 0.01,-0.001 0.02,-0.003 0.029,-0.004 l -0.1953,-124.94531 c 0,0 0.058,-10.49878 7.5762,-24.2461 7.9946,-14.61893 18.123,-17.13476 18.123,-17.13476 l 0.1465,-4.9043 -106.3418,0.46485 v 0 c 0,1.03742 0.027,3.46907 0.037,4.50976 0.011,2.02141 7.2842,-0.97851 16.4512,14.06641 6.0208,9.8813 7.9104,25.16155 7.9004,27.39062 -0.2198,49.90789 0.3179,97.72207 0.8457,143.9961 l -22.4649,11.79492 -14.8925,9.16406 c -81.1573,51.49347 -92.7185,141.66278 -93.9336,178.13086 4.7169,67.62993 16.233,91.96135 58.4218,140.90039 28.6384,33.22055 79.0411,50.97656 79.0411,50.97656 0,0 11.3924,4.50541 24.6015,8.34375 7.7342,2.24743 15.0632,4.82687 22.3672,5.97461 7.715,1.21232 33.8116,6.02369 61.5176,7.53516 29.8031,1.62585 61.0547,-0.0879 61.0547,-0.0879 l 91.85351,-10.51953 c 0,0 50.29145,-8.82417 120.28711,-19.43555 60.91555,-9.23483 136.61678,-20.44922 208.84375,-20.44922 155.22014,0 232.59571,55.07813 232.59571,55.07813 0,0 15.63242,11.52894 23.21679,15.29297 l 4.26172,4.51367 0.004,-0.006 0.88867,1.05078 c 0,0 29.97094,38.8819 63.18164,-34.01953 23.1744,-50.87056 53.09615,-119.76845 99.18555,-172.11719 19.9603,-22.67108 41.63587,-45.85695 69.29687,-57.11719 91.531916,-37.26078 121.908216,-42.93164 121.908216,-42.93164 l 5.46679,-12.96094 c 0,0 -155.724266,18.63092 -214.855476,84.24219 -19.01739,21.10149 -32.86151,32.2228 -46.60351,49.46094 -28.9862,36.36078 -48.6333,71.2937 -53.0293,83.38281 -1.4588,4.01173 -5.62022,9.83684 -9.01562,16.27735 -8.4689,16.06383 -21.13856,32.9621 -40.91993,13.16406 -7.51763,-7.52396 -19.52952,-18.93901 -27.82617,-39.16211 -24.60552,-59.97597 -44.7047,-115.06671 -59.3164,-172.93164 -10.74616,-42.55667 -57.61295,-252.77944 49.5957,-308.21875 41.31082,-14.5803 69.66226,-13.76972 90.72266,-8.09961 21.0604,5.67012 79.86523,26.79297 79.86523,26.79297 -35.8875,-21.4788 -90.58018,-86.19746 -179.62109,-87.41016 z m -444.22266,270.57813 c -0.39235,-1.15175 -0.39167,-1.1519 1.17773,3.45507 0,0 -0.78538,-2.30333 -1.17773,-3.45507 z m -37.99023,164.21679 c -0.23738,0.51431 -0.18467,1.19269 0.13476,2.01172 z m 512.01953,197.88868 c 0.12938,0.1265 0.25915,0.25383 0.38867,0.38086 l -0.11719,0.0898 z"
         sodipodi:nodetypes="ccsccsccsccccssscccsssscccscsssssscscccccsccccsscccccsscccccssscssssssssscscccccsssssccssssccccccccccccccccsccccscccccccccccccccccccscccccccscsssccsscccccsssccssssssscscccscsccccccc" />
    </g>
  </g>
</svg>
